 <svg  version="1.0" xmlns="http://www.w3.org/2000/svg"  width="300.000000pt" height="300.000000pt" viewBox="0 0 300.000000 300.000000"  preserveAspectRatio="xMidYMid meet">  <g transform="translate(0.000000,300.000000) scale(0.100000,-0.100000)" fill="#141415" stroke="none"> <path d="M1075 2793 c-62 -6 -112 -26 -172 -69 -75 -53 -125 -110 -161 -184 -25 -51 -27 -64 -27 -180 0 -98 4 -135 19 -173 18 -48 18 -49 -3 -71 -24 -25 -27 -66 -9 -117 15 -45 58 -105 86 -120 12 -7 22 -17 22 -22 0 -5 7 -15 16 -21 14 -11 22 -35 41 -128 8 -43 -33 -152 -69 -182 -18 -14 -40 -26 -50 -26 -9 0 -32 -13 -50 -28 -18 -16 -64 -46 -103 -66 -119 -65 -326 -209 -367 -256 -49 -55 -161 -279 -189 -375 -20 -71 -50 -257 -48 -304 l0 -26 11 25 c6 14 12 48 14 77 2 28 10 75 18 105 8 29 17 64 19 78 2 14 7 32 10 40 3 8 11 32 17 53 6 20 16 37 21 37 6 0 8 4 5 9 -4 5 0 22 8 38 8 15 26 51 39 78 60 119 81 154 90 148 6 -3 7 -1 3 5 -11 17 24 30 60 22 19 -4 50 -17 69 -29 49 -29 58 -27 14 3 -20 14 -50 28 -67 33 -33 9 -31 17 16 57 19 17 22 17 16 3 -10 -27 2 -20 48 28 34 35 48 43 68 39 22 -4 22 -3 5 5 -19 9 -19 10 3 10 12 1 22 5 22 11 0 5 23 23 52 39 38 22 56 27 65 20 7 -6 18 -9 25 -6 8 4 7 6 -4 6 -10 1 -18 5 -18 9 0 9 46 35 63 36 5 1 14 11 20 23 9 16 16 20 27 13 22 -14 33 -12 26 5 -11 30 24 28 49 -1 14 -16 25 -24 25 -17 0 6 -4 15 -10 18 -17 10 -11 44 10 65 11 11 23 34 27 50 3 17 7 30 9 30 2 0 77 -75 166 -166 157 -160 221 -215 265 -226 16 -4 20 -2 16 8 -3 8 -10 14 -17 13 -19 -3 -46 12 -46 27 0 8 -6 11 -15 8 -10 -4 -15 0 -15 11 0 9 -3 14 -7 12 -5 -3 -14 1 -20 8 -10 11 -9 15 5 18 13 4 13 5 -4 6 -26 1 -304 273 -305 298 -2 28 2 68 8 73 3 3 12 -4 22 -16 9 -11 22 -19 28 -17 6 2 15 -1 19 -8 4 -8 3 -9 -4 -5 -17 10 -15 -6 3 -30 14 -18 14 -18 8 4 -6 26 -1 27 32 6 16 -10 22 -21 18 -32 -6 -14 -4 -15 8 -5 8 7 26 10 40 7 24 -6 24 -6 2 8 -26 16 -68 40 -106 60 -36 20 -90 95 -91 129 -1 15 -3 26 -6 24 -3 -2 -18 18 -35 44 -16 27 -41 53 -56 60 -15 7 -35 24 -45 39 -20 30 -24 114 -6 120 7 2 10 8 6 13 -3 5 0 9 6 9 7 0 9 -7 6 -16 -4 -9 -1 -22 4 -30 8 -9 7 -19 -5 -38 -13 -19 -14 -29 -5 -45 6 -12 15 -21 20 -21 5 0 16 -7 24 -16 14 -13 16 -13 16 -1 0 9 -3 23 -6 32 -5 13 -9 14 -15 4 -10 -16 -16 -11 -21 16 -2 13 2 19 11 17 14 -3 14 -2 -4 82 -3 10 -12 44 -21 75 -9 31 -18 78 -20 104 -2 27 -6 53 -9 58 -4 5 -1 9 4 9 6 0 11 5 11 11 0 5 -4 8 -8 5 -5 -3 -9 8 -10 24 0 17 4 30 10 30 6 0 5 7 -3 16 -11 14 -11 18 2 28 8 6 16 22 16 36 1 13 10 30 19 37 9 7 14 19 11 28 -4 8 -2 15 2 15 5 0 12 -6 14 -12 3 -8 6 -6 6 5 1 9 9 17 19 17 9 0 25 7 35 14 16 12 16 14 1 20 -22 9 -24 8 -18 -8 3 -9 -4 -15 -20 -18 l-24 -5 26 34 c27 32 42 42 42 24 0 -16 38 -19 44 -4 9 23 7 26 -10 19 -9 -3 -20 -3 -26 0 -14 9 42 55 56 47 6 -3 8 -3 4 2 -4 4 0 14 9 20 14 11 20 10 30 -4 11 -14 12 -14 8 0 -4 10 3 19 19 27 21 9 24 9 19 -3 -7 -20 0 -19 26 4 24 21 53 22 89 2 27 -14 44 -6 22 10 -12 9 -12 10 3 5 10 -3 23 -6 28 -6 6 0 7 -5 3 -12 -4 -7 -3 -8 4 -4 14 8 82 -19 82 -33 0 -6 -4 -11 -10 -11 -5 0 -10 5 -10 10 0 6 -7 10 -15 10 -23 0 -18 -16 10 -28 21 -10 27 -9 31 3 7 18 24 20 24 2 0 -7 12 -14 27 -15 32 -3 57 -24 85 -74 12 -21 26 -38 30 -38 5 0 6 -5 3 -11 -8 -12 22 -79 34 -79 14 0 34 -104 33 -172 -1 -10 3 -20 9 -23 6 -4 5 -13 0 -24 -7 -12 -5 -26 4 -44 22 -43 38 -250 24 -316 -6 -31 -15 -60 -19 -66 -4 -5 -20 -50 -36 -99 -22 -67 -34 -90 -51 -97 -12 -4 -26 -17 -32 -27 -6 -11 -24 -22 -41 -25 -18 -4 -30 -13 -30 -22 0 -17 30 -17 42 0 4 6 8 2 8 -8 0 -28 34 -4 35 24 0 14 7 25 18 27 10 2 17 -3 17 -12 0 -8 5 -18 12 -22 8 -5 9 -2 5 9 -11 28 1 19 18 -13 9 -17 20 -28 25 -25 5 3 12 0 16 -6 5 -8 3 -9 -5 -4 -10 6 -11 3 -2 -14 14 -25 22 -28 15 -3 -4 11 3 8 19 -10 14 -15 27 -24 30 -22 3 3 16 0 29 -7 12 -7 29 -14 36 -15 8 -1 38 -14 68 -29 53 -26 68 -42 39 -42 -8 0 -15 4 -15 9 0 4 -8 8 -17 8 -15 0 -14 -2 3 -15 25 -19 68 -20 61 -1 -4 11 -1 11 18 2 21 -10 22 -12 7 -18 -11 -4 -5 -7 18 -8 34 -1 114 -31 110 -40 -3 -11 13 -40 23 -40 5 0 2 9 -8 20 -10 11 -14 20 -8 20 13 0 53 -44 53 -58 0 -7 5 -12 10 -12 13 0 40 -61 33 -73 -2 -4 1 -6 9 -5 7 2 13 -5 13 -15 0 -10 5 -21 12 -25 40 -25 43 -281 4 -347 -10 -18 -17 -36 -14 -39 11 -11 33 23 44 70 l12 47 14 -44 c7 -24 14 -55 15 -69 1 -14 8 -34 15 -45 18 -26 16 -40 -2 -25 -13 11 -15 5 -16 -41 0 -30 -2 -64 -5 -77 -2 -13 0 -21 5 -17 5 3 3 -7 -4 -22 -8 -16 -16 -41 -19 -58 -4 -16 -3 -24 0 -16 4 7 15 22 26 33 14 14 17 23 9 32 -9 10 -6 13 11 12 32 -1 34 -30 4 -69 -14 -19 -26 -37 -26 -40 0 -15 16 -5 31 18 14 24 15 23 16 -34 2 -46 -1 -59 -11 -55 -7 3 -16 -2 -20 -11 -3 -9 -2 -13 4 -10 15 9 -19 -67 -45 -100 -52 -67 -114 -127 -124 -121 -7 4 -8 1 -5 -8 3 -9 1 -16 -5 -16 -6 0 -11 10 -12 23 0 15 -5 9 -13 -18 -13 -44 -7 -86 13 -93 10 -3 11 0 1 18 -12 23 -2 39 67 104 45 43 115 132 130 166 l15 35 9 -30 c4 -16 10 -58 11 -92 l3 -61 -37 -13 c-29 -9 -44 -9 -63 -1 -15 7 -27 8 -30 2 -4 -6 2 -10 12 -10 11 0 23 -4 29 -10 6 -6 27 -5 59 4 l50 12 -3 55 c-2 30 -8 120 -13 199 -5 80 -11 177 -13 215 -2 39 -9 88 -15 110 -39 132 -52 195 -60 289 -10 117 -32 176 -101 274 -32 46 -56 67 -115 100 -41 23 -78 42 -83 42 -13 0 -239 96 -259 111 -10 8 -36 33 -57 57 -33 36 -38 47 -33 75 8 52 11 62 22 69 6 4 10 13 10 20 1 21 27 78 36 78 5 0 8 10 7 23 -1 12 3 38 9 58 13 43 5 142 -32 394 -24 161 -30 187 -62 246 -44 81 -89 130 -166 180 -83 54 -174 80 -252 72z m350 -1223 c3 -5 1 -10 -4 -10 -6 0 -11 5 -11 10 0 6 2 10 4 10 3 0 8 -4 11 -10z m785 -952 c0 -5 -4 -8 -10 -8 -5 0 -10 10 -10 23 0 18 2 19 10 7 5 -8 10 -18 10 -22z m-5 -28 c-3 -5 -11 -10 -16 -10 -6 0 -7 5 -4 10 3 6 11 10 16 10 6 0 7 -4 4 -10z"/> <path d="M1130 2731 c0 -5 -3 -18 -6 -28 -4 -11 -3 -14 3 -7 4 6 13 13 20 15 8 3 7 8 -3 17 -8 7 -14 8 -14 3z"/> <path d="M1005 2710 c-3 -5 -1 -10 4 -10 6 0 11 5 11 10 0 6 -2 10 -4 10 -3 0 -8 -4 -11 -10z"/> <path d="M975 2680 c-3 -5 -1 -10 4 -10 6 0 11 5 11 10 0 6 -2 10 -4 10 -3 0 -8 -4 -11 -10z"/> <path d="M1050 2672 c0 -13 5 -20 13 -17 6 2 32 6 56 9 24 3 47 9 50 12 3 4 -17 4 -45 1 -32 -4 -55 -2 -63 6 -8 8 -11 6 -11 -11z"/> <path d="M1015 2659 c-10 -15 3 -25 16 -12 7 7 7 13 1 17 -6 3 -14 1 -17 -5z"/> <path d="M1350 2596 c0 -2 7 -6 15 -10 8 -3 15 -1 15 4 0 6 -7 10 -15 10 -8 0 -15 -2 -15 -4z"/> <path d="M1100 2406 c0 -2 7 -7 16 -10 8 -3 12 -2 9 4 -6 10 -25 14 -25 6z"/> <path d="M1415 2333 c-11 -2 -30 -6 -41 -8 -12 -3 -24 -11 -27 -19 -5 -12 0 -13 21 -6 15 5 49 11 76 15 35 5 45 9 35 16 -15 9 -30 10 -64 2z"/> <path d="M1306 2288 c3 -5 10 -6 15 -3 13 9 11 12 -6 12 -8 0 -12 -4 -9 -9z"/> <path d="M954 2259 c-6 -11 -11 -10 102 -12 66 -2 90 1 87 10 -5 13 -181 15 -189 2z"/> <path d="M1355 2237 c-39 -15 -58 -34 -45 -42 5 -3 10 -3 10 2 0 4 18 16 39 27 39 18 82 18 141 1 20 -6 23 -5 13 5 -17 18 -120 22 -158 7z"/> <path d="M1086 2231 c-3 -5 4 -11 16 -14 29 -8 32 -4 8 11 -10 6 -21 8 -24 3z"/> <path d="M1420 2211 c-6 -12 -16 -19 -22 -15 -7 4 -6 9 3 15 16 10 -1 12 -25 3 -13 -5 -13 -8 -1 -20 18 -18 54 -18 61 1 6 15 34 21 34 7 0 -4 9 -8 20 -8 16 0 17 3 8 12 -7 7 -25 16 -40 19 -21 5 -29 2 -38 -14z"/> <path d="M1050 2189 c0 -5 5 -7 10 -4 6 4 24 -1 42 -9 41 -21 46 -20 18 4 -24 21 -70 27 -70 9z"/> <path d="M967 2169 c-22 -11 -36 -23 -33 -26 3 -3 12 -1 19 6 8 6 32 17 53 25 23 9 31 15 19 15 -11 0 -37 -9 -58 -20z"/> <path d="M1345 2180 c-3 -5 1 -10 10 -10 9 0 13 5 10 10 -3 6 -8 10 -10 10 -2 0 -7 -4 -10 -10z"/> <path d="M1445 2170 c-3 -6 -25 -10 -48 -10 -29 0 -38 -3 -30 -11 15 -15 93 -24 93 -11 0 6 7 12 15 14 13 2 12 5 -4 15 -13 8 -22 9 -26 3z"/> <path d="M1021 2163 c-13 -3 -37 -13 -53 -23 l-29 -18 29 -4 c22 -3 29 -1 25 9 -6 16 1 16 28 1 18 -11 23 -10 36 9 14 20 50 22 37 2 -3 -5 6 -9 20 -9 34 0 33 -18 -3 -58 -40 -43 -24 -41 19 3 28 29 31 36 20 50 -30 36 -72 49 -129 38z m19 -23 c0 -5 -2 -10 -4 -10 -3 0 -8 5 -11 10 -3 6 -1 10 4 10 6 0 11 -4 11 -10z"/> <path d="M1302 2151 c7 -12 19 -21 26 -21 7 0 25 -8 40 -17 21 -14 24 -14 15 -2 -6 8 -30 25 -53 38 -40 23 -41 23 -28 2z"/> <path d="M891 2144 c0 -11 3 -14 6 -6 3 7 2 16 -1 19 -3 4 -6 -2 -5 -13z"/> <path d="M1210 2130 c0 -5 5 -10 11 -10 5 0 7 5 4 10 -3 6 -8 10 -11 10 -2 0 -4 -4 -4 -10z"/> <path d="M1085 2113 c-11 -3 -25 -9 -32 -15 -6 -5 -23 -6 -37 -2 -20 5 -25 3 -21 -8 7 -19 69 -11 109 13 30 18 23 22 -19 12z"/> <path d="M1304 2055 c11 -8 22 -12 25 -9 6 6 -19 24 -34 24 -5 -1 -1 -7 9 -15z"/> <path d="M1370 2045 c0 -9 -6 -12 -17 -8 -11 4 -14 3 -9 -6 5 -7 14 -10 22 -7 7 3 16 1 19 -4 3 -6 15 -15 26 -21 18 -9 19 -8 11 8 -6 10 -20 26 -31 35 -17 15 -21 15 -21 3z"/> <path d="M1188 2013 c7 -3 16 -2 19 1 4 3 -2 6 -13 5 -11 0 -14 -3 -6 -6z"/> <path d="M1140 2001 c0 -6 4 -13 10 -16 6 -3 7 1 4 9 -7 18 -14 21 -14 7z"/> <path d="M1317 1960 c-9 -11 -13 -20 -7 -20 5 0 12 5 15 10 3 6 14 9 23 9 15 -1 15 -2 0 -6 -10 -2 -18 -9 -18 -14 0 -5 -9 -9 -20 -9 -11 0 -20 4 -20 8 0 16 -47 34 -69 27 -32 -10 -26 -28 8 -20 21 4 30 2 35 -11 9 -23 94 -14 113 12 25 34 -31 48 -60 14z"/> <path d="M1147 1955 c3 -11 10 -26 16 -32 11 -15 53 -17 62 -3 4 6 -5 10 -20 10 -15 0 -35 10 -46 23 -17 20 -18 20 -12 2z"/> <path d="M1320 1893 c0 -5 -6 -10 -12 -11 -7 -1 -26 -4 -42 -8 -22 -5 -27 -4 -21 6 6 9 3 10 -14 0 -12 -6 -25 -18 -28 -26 -3 -7 -10 -11 -15 -8 -6 4 -14 0 -19 -7 -15 -24 -10 -29 16 -17 14 6 25 14 25 18 0 4 20 13 44 19 50 12 81 14 52 2 -12 -4 -15 -10 -9 -14 12 -8 56 27 46 37 -4 3 11 0 33 -7 21 -8 44 -12 51 -10 16 6 43 -36 36 -56 -5 -12 -3 -13 6 -5 18 17 0 76 -24 80 -76 13 -125 16 -125 7z"/> <path d="M1424 1841 c-22 -19 -106 -40 -183 -45 -46 -3 -89 -10 -94 -15 -14 -14 180 -6 196 7 7 6 34 16 60 22 45 12 57 23 39 34 -5 3 -13 2 -18 -3z"/> <path d="M1116 1802 c-8 -16 -11 -34 -7 -41 6 -10 10 -9 15 4 3 9 4 20 1 25 -3 4 2 10 10 14 17 6 21 26 5 26 -5 0 -16 -13 -24 -28z"/> <path d="M1253 1823 c9 -2 23 -2 30 0 6 3 -1 5 -18 5 -16 0 -22 -2 -12 -5z"/> <path d="M1480 1764 c0 -8 5 -12 10 -9 6 3 10 10 10 16 0 5 -4 9 -10 9 -5 0 -10 -7 -10 -16z"/> <path d="M1421 1762 c-1 -7 -22 -22 -47 -34 -59 -25 -149 -22 -170 7 -11 15 -14 16 -14 4 0 -17 42 -44 69 -44 9 0 15 -5 14 -12 -2 -8 18 -5 57 9 33 11 60 25 60 31 0 5 3 8 6 4 10 -9 36 22 31 36 -4 9 -6 9 -6 -1z"/> <path d="M1095 1680 c3 -5 8 -10 11 -10 2 0 4 5 4 10 0 6 -5 10 -11 10 -5 0 -7 -4 -4 -10z"/> <path d="M1350 1679 c0 -5 5 -7 10 -4 6 3 10 8 10 11 0 2 -4 4 -10 4 -5 0 -10 -5 -10 -11z"/> <path d="M1137 1610 c15 -6 21 -15 17 -25 -4 -9 -1 -15 9 -15 16 0 18 -31 2 -42 -5 -4 3 -7 18 -6 25 2 26 4 11 15 -10 7 -15 16 -11 19 4 4 2 13 -4 21 -9 10 -8 13 5 13 9 0 19 -12 22 -26 5 -19 9 -22 15 -12 5 7 9 17 9 21 0 9 -86 47 -103 46 -7 0 -2 -4 10 -9z"/> <path d="M1095 1580 c-3 -5 -1 -10 4 -10 6 0 11 5 11 10 0 6 -2 10 -4 10 -3 0 -8 -4 -11 -10z"/> <path d="M1115 1561 c-2 -5 4 -11 15 -14 11 -3 20 -2 20 3 0 12 -28 21 -35 11z"/> <path d="M1450 1564 c0 -10 28 -33 33 -27 3 3 0 12 -8 19 -14 15 -25 18 -25 8z"/> <path d="M1240 1549 c0 -5 5 -7 10 -4 6 3 10 1 10 -4 0 -6 7 -11 16 -11 14 0 14 3 4 15 -14 17 -40 20 -40 4z"/> <path d="M1496 1463 c-6 -67 -7 -99 -3 -180 1 -18 14 -16 21 3 9 24 7 254 -3 254 -4 0 -11 -35 -15 -77z"/> <path d="M1267 1479 c7 -7 15 -10 18 -7 3 3 -2 9 -12 12 -14 6 -15 5 -6 -5z"/> <path d="M1679 1430 c13 -11 28 -20 35 -20 6 0 0 9 -14 20 -33 26 -52 25 -21 0z"/> <path d="M775 1431 c-3 -6 -1 -11 5 -11 7 0 10 -7 7 -14 -4 -10 -1 -13 8 -10 7 3 16 -3 19 -14 4 -11 20 -25 36 -32 46 -19 78 -69 90 -144 7 -36 16 -66 22 -66 5 0 6 5 3 10 -3 6 -4 10 0 10 3 0 9 -10 14 -22 4 -12 10 -17 13 -12 8 13 -99 243 -125 269 -7 7 -8 6 -3 -2 3 -6 2 -14 -3 -17 -12 -8 -41 3 -41 15 0 18 -38 51 -45 40z"/> <path d="M1725 1376 c10 -14 19 -26 22 -26 7 0 -17 39 -28 46 -6 3 -3 -5 6 -20z"/> <path d="M1797 1359 c7 -7 15 -10 18 -7 3 3 -2 9 -12 12 -14 6 -15 5 -6 -5z"/> <path d="M744 1327 c-11 -12 -31 -30 -44 -40 -25 -18 -25 -18 5 -1 34 19 69 53 63 60 -3 2 -13 -6 -24 -19z"/> <path d="M1880 1343 c0 -5 9 -18 20 -28 11 -10 20 -16 20 -13 0 3 -9 15 -20 28 -11 13 -20 19 -20 13z"/> <path d="M1455 1330 c-3 -5 -4 -10 0 -10 3 0 1 -9 -5 -20 -8 -15 -8 -20 2 -20 7 0 14 13 15 30 2 31 -1 37 -12 20z"/> <path d="M1739 1305 c17 -20 31 -40 31 -46 0 -6 4 -7 10 -4 13 8 -15 61 -39 75 -34 17 -34 11 -2 -25z"/> <path d="M1645 1320 c-3 -6 1 -7 9 -4 18 7 21 14 7 14 -6 0 -13 -4 -16 -10z"/> <path d="M1676 1280 c9 -16 21 -30 27 -30 7 0 6 4 -3 10 -8 5 -11 12 -7 16 4 4 2 13 -4 21 -20 24 -28 14 -13 -17z"/> <path d="M1580 1293 c0 -4 5 -15 10 -23 8 -13 10 -13 10 2 0 9 -4 20 -10 23 -5 3 -10 3 -10 -2z"/> <path d="M1920 1285 c0 -2 10 -10 23 -16 20 -11 21 -11 8 4 -13 16 -31 23 -31 12z"/> <path d="M1159 1270 c-42 -12 -78 -40 -115 -88 -42 -55 -36 -71 7 -19 20 25 39 37 55 37 14 0 23 4 20 9 -3 4 2 17 10 27 9 10 13 14 9 7 -4 -8 3 -8 22 2 26 14 29 13 45 -8 13 -17 18 -18 18 -6 0 14 -30 50 -41 48 -2 0 -16 -4 -30 -9z"/> <path d="M1350 1269 c0 -15 18 -19 23 -6 3 8 -1 14 -9 14 -8 0 -14 -4 -14 -8z"/> <path d="M1654 1269 c-3 -6 -25 -20 -48 -30 -33 -15 -47 -30 -74 -81 -21 -41 -26 -55 -12 -39 11 13 20 29 20 36 0 14 80 85 96 85 5 0 15 9 22 20 7 11 10 20 8 20 -3 0 -8 -5 -12 -11z"/> <path d="M455 1260 c-3 -5 -2 -10 4 -10 5 0 13 5 16 10 3 6 2 10 -4 10 -5 0 -13 -4 -16 -10z"/> <path d="M1530 1261 c0 -8 41 -23 47 -17 2 1 -8 8 -22 14 -14 6 -25 8 -25 3z"/> <path d="M728 1253 c7 -3 16 -2 19 1 4 3 -2 6 -13 5 -11 0 -14 -3 -6 -6z"/> <path d="M590 1235 c-14 -8 -20 -14 -15 -14 6 0 21 6 35 14 14 8 21 14 15 14 -5 0 -21 -6 -35 -14z"/> <path d="M416 1214 c-20 -18 -25 -28 -17 -35 6 -5 9 -6 6 -2 -3 4 7 19 22 35 33 35 28 36 -11 2z"/> <path d="M1246 1215 c4 -8 9 -15 13 -15 3 0 30 -16 60 -35 61 -40 90 -46 46 -9 -26 22 -112 74 -121 74 -2 0 -1 -7 2 -15z"/> <path d="M1456 1150 c-9 -47 -18 -97 -18 -112 -1 -16 -2 -28 -4 -28 -2 0 -17 14 -34 30 -31 31 -50 38 -50 20 0 -5 5 -10 11 -10 6 0 24 -11 41 -25 28 -24 29 -29 32 -112 1 -51 14 -139 30 -208 38 -171 63 -308 71 -400 3 -44 10 -107 15 -140 5 -33 12 -82 15 -109 3 -28 8 -52 10 -55 8 -7 6 45 -4 117 -5 37 -15 117 -21 177 -7 61 -30 202 -51 315 -54 281 -60 349 -37 480 23 131 19 175 -6 60z"/> <path d="M540 1210 c0 -5 -9 -10 -21 -10 -25 0 -55 -16 -83 -43 l-21 -19 24 13 c13 8 33 20 45 26 11 7 28 13 37 13 9 0 22 7 29 15 9 10 9 15 1 15 -6 0 -11 -4 -11 -10z"/> <path d="M725 1210 c-3 -6 1 -7 9 -4 18 7 21 14 7 14 -6 0 -13 -4 -16 -10z"/> <path d="M1202 1198 c2 -5 7 -9 12 -8 5 1 13 -4 17 -12 7 -10 9 -9 9 3 0 9 -9 19 -21 22 -11 3 -19 1 -17 -5z"/> <path d="M1645 1200 c-3 -5 -1 -10 4 -10 6 0 11 5 11 10 0 6 -2 10 -4 10 -3 0 -8 -4 -11 -10z"/> <path d="M1736 1195 c4 -8 11 -15 16 -15 6 0 5 6 -2 15 -7 8 -14 15 -16 15 -2 0 -1 -7 2 -15z"/> <path d="M1080 1165 c7 -8 20 -15 29 -15 13 1 13 3 -3 15 -26 19 -42 19 -26 0z"/> <path d="M1395 1170 c-3 -5 -2 -10 4 -10 5 0 13 5 16 10 3 6 2 10 -4 10 -5 0 -13 -4 -16 -10z"/> <path d="M2004 1167 c3 -10 6 -42 7 -70 0 -29 3 -45 6 -37 3 8 11 19 17 23 8 6 7 10 -1 14 -7 2 -13 17 -13 31 0 15 -5 34 -11 42 -9 12 -10 12 -5 -3z"/> <path d="M460 1130 c0 -5 5 -10 11 -10 5 0 7 5 4 10 -3 6 -8 10 -11 10 -2 0 -4 -4 -4 -10z"/> <path d="M1184 1116 c11 -9 27 -16 35 -15 14 0 14 1 1 6 -8 3 -24 10 -35 15 -20 9 -20 9 -1 -6z"/> <path d="M1400 1109 c0 -8 7 -24 15 -35 11 -14 14 -15 14 -4 0 8 -6 24 -14 34 -11 15 -15 16 -15 5z"/> <path d="M437 1089 c7 -7 15 -10 18 -7 3 3 -2 9 -12 12 -14 6 -15 5 -6 -5z"/> <path d="M1326 1084 c-11 -8 -16 -14 -10 -14 13 0 39 18 34 24 -3 2 -14 -2 -24 -10z"/> <path d="M975 1080 c3 -5 8 -10 11 -10 2 0 4 5 4 10 0 6 -5 10 -11 10 -5 0 -7 -4 -4 -10z"/> <path d="M1228 1083 c7 -3 16 -2 19 1 4 3 -2 6 -13 5 -11 0 -14 -3 -6 -6z"/> <path d="M2102 1060 c0 -14 2 -19 5 -12 2 6 2 18 0 25 -3 6 -5 1 -5 -13z"/> <path d="M580 1045 c0 -2 10 -10 23 -16 20 -11 21 -11 8 4 -13 16 -31 23 -31 12z"/> <path d="M1338 993 c7 -3 16 -2 19 1 4 3 -2 6 -13 5 -11 0 -14 -3 -6 -6z"/> <path d="M2022 975 c0 -16 2 -22 5 -12 2 9 2 23 0 30 -3 6 -5 -1 -5 -18z"/> <path d="M2101 984 c0 -11 3 -14 6 -6 3 7 2 16 -1 19 -3 4 -6 -2 -5 -13z"/> <path d="M1461 973 c-1 -12 4 -25 9 -28 12 -7 12 2 0 30 -8 19 -9 19 -9 -2z"/> <path d="M640 970 c0 -5 5 -10 11 -10 5 0 7 5 4 10 -3 6 -8 10 -11 10 -2 0 -4 -4 -4 -10z"/> <path d="M536 947 c3 -10 9 -15 12 -12 3 3 0 11 -7 18 -10 9 -11 8 -5 -6z"/> <path d="M1495 907 c4 -8 15 -17 25 -20 13 -3 17 -1 13 10 -3 7 -8 11 -11 9 -3 -3 -11 -1 -19 6 -11 8 -12 7 -8 -5z"/> <path d="M2026 854 c-6 -60 -3 -85 8 -73 10 10 18 139 9 139 -6 0 -13 -30 -17 -66z"/> <path d="M566 875 c4 -8 8 -15 10 -15 2 0 4 7 4 15 0 8 -4 15 -10 15 -5 0 -7 -7 -4 -15z"/> <path d="M460 851 c0 -5 5 -13 10 -16 6 -3 10 -2 10 4 0 5 -4 13 -10 16 -5 3 -10 2 -10 -4z"/> <path d="M590 840 c0 -8 5 -22 10 -30 9 -13 10 -13 10 0 0 8 -5 22 -10 30 -9 13 -10 13 -10 0z"/> <path d="M690 840 c0 -5 5 -10 11 -10 5 0 7 5 4 10 -3 6 -8 10 -11 10 -2 0 -4 -4 -4 -10z"/> <path d="M2076 812 c-17 -20 -36 -41 -43 -45 -7 -4 -13 -23 -13 -41 0 -18 -7 -82 -16 -142 -9 -60 -16 -116 -16 -124 7 -212 16 -321 25 -290 5 19 7 58 4 87 -5 47 -3 53 20 68 13 9 22 19 19 22 -3 3 -12 0 -21 -7 -9 -7 -17 -11 -19 -9 -12 12 -13 146 -2 187 8 26 13 63 12 82 -3 42 11 86 36 119 24 32 14 41 -11 10 -31 -37 -25 -7 7 37 29 40 55 84 50 84 -2 0 -16 -17 -32 -38z"/> <path d="M695 754 c-8 -46 -36 -157 -42 -164 -9 -11 -23 28 -23 68 0 23 -4 42 -10 42 -14 0 -12 -45 4 -84 8 -20 17 -96 21 -192 9 -186 23 -178 20 11 -1 72 2 141 8 155 11 31 38 192 32 198 -2 2 -7 -13 -10 -34z"/> <path d="M620 771 c0 -5 5 -13 10 -16 6 -3 10 -2 10 4 0 5 -4 13 -10 16 -5 3 -10 2 -10 -4z"/> <path d="M400 735 c0 -8 2 -15 4 -15 2 0 6 7 10 15 3 8 1 15 -4 15 -6 0 -10 -7 -10 -15z"/> <path d="M1750 703 c5 -10 14 -44 20 -75 6 -32 14 -58 17 -58 3 0 2 17 -1 38 -13 69 -27 112 -36 112 -7 0 -7 -6 0 -17z"/> <path d="M410 706 c0 -2 7 -7 16 -10 8 -3 12 -2 9 4 -6 10 -25 14 -25 6z"/> <path d="M446 667 c3 -10 9 -15 12 -12 3 3 0 11 -7 18 -10 9 -11 8 -5 -6z"/> <path d="M825 650 c-3 -5 -1 -10 4 -10 6 0 11 5 11 10 0 6 -2 10 -4 10 -3 0 -8 -4 -11 -10z"/> <path d="M1531 619 c-12 -36 -8 -47 22 -58 43 -16 54 55 14 81 -20 13 -25 9 -36 -23z m47 -22 c4 -30 0 -32 -27 -15 -11 7 -16 18 -13 30 7 28 36 18 40 -15z"/> <path d="M1555 600 c3 -5 8 -10 11 -10 2 0 4 5 4 10 0 6 -5 10 -11 10 -5 0 -7 -4 -4 -10z"/> <path d="M2060 635 c0 -8 5 -15 10 -15 6 0 10 7 10 15 0 8 -4 15 -10 15 -5 0 -10 -7 -10 -15z"/> <path d="M453 625 c-7 -8 -9 -16 -5 -19 4 -3 13 4 20 15 14 22 3 25 -15 4z"/> <path d="M60 589 c0 -5 5 -7 10 -4 6 3 10 8 10 11 0 2 -4 4 -10 4 -5 0 -10 -5 -10 -11z"/> <path d="M2110 574 c-6 -14 -10 -32 -10 -40 0 -9 -4 -24 -10 -34 -6 -11 -6 -28 -1 -42 7 -19 10 -11 16 40 4 34 10 62 14 62 4 0 7 9 7 20 0 27 -5 25 -16 -6z"/> <path d="M763 563 c-7 -2 -13 -8 -13 -13 0 -10 51 -3 62 8 9 9 -31 13 -49 5z"/> <path d="M843 563 c8 -13 67 -23 67 -11 0 4 -9 8 -19 8 -11 0 -27 3 -37 7 -11 4 -15 3 -11 -4z"/> <path d="M1603 555 c0 -8 6 -15 13 -15 8 0 11 6 8 15 -4 8 -9 15 -13 15 -4 0 -8 -7 -8 -15z"/> <path d="M1788 535 c2 -14 6 -25 8 -25 2 0 4 11 4 25 0 14 -4 25 -9 25 -4 0 -6 -11 -3 -25z"/> <path d="M705 530 c3 -5 8 -10 11 -10 2 0 4 5 4 10 0 6 -5 10 -11 10 -5 0 -7 -4 -4 -10z"/> <path d="M1620 489 c0 -11 4 -18 10 -14 5 3 7 12 3 20 -7 21 -13 19 -13 -6z"/> <path d="M1802 475 c0 -16 2 -22 5 -12 2 9 2 23 0 30 -3 6 -5 -1 -5 -18z"/> <path d="M511 474 c0 -11 3 -14 6 -6 3 7 2 16 -1 19 -3 4 -6 -2 -5 -13z"/> <path d="M1808 415 c2 -14 6 -25 8 -25 2 0 4 11 4 25 0 14 -4 25 -9 25 -4 0 -6 -11 -3 -25z"/> <path d="M2060 430 c0 -5 5 -10 11 -10 5 0 7 5 4 10 -3 6 -8 10 -11 10 -2 0 -4 -4 -4 -10z"/> <path d="M2175 399 c4 -10 2 -20 -4 -24 -6 -3 -11 -11 -11 -18 0 -6 7 -1 16 12 13 17 14 25 5 34 -9 9 -11 8 -6 -4z"/> <path d="M2086 374 c-18 -26 -18 -26 1 -16 11 6 25 18 33 26 10 13 10 16 -1 16 -8 0 -22 -12 -33 -26z"/> <path d="M0 370 c0 -6 10 -14 23 -19 13 -5 28 -15 34 -22 12 -17 2 -106 -20 -163 -13 -34 -13 -46 0 -95 18 -69 38 -95 29 -36 l-7 40 20 -25 c12 -14 21 -20 21 -13 0 7 -14 26 -31 44 -37 38 -35 56 11 82 42 24 81 18 250 -37 170 -54 259 -91 273 -113 17 -26 34 -12 45 38 14 61 15 79 3 79 -5 0 -12 -27 -16 -61 l-7 -60 -22 19 c-25 23 -49 36 -107 57 -24 9 -69 25 -99 36 -124 46 -265 81 -302 75 -31 -5 -36 -3 -32 9 4 8 11 15 16 15 6 0 8 7 4 15 -3 8 -1 15 5 15 6 0 7 6 2 13 -22 35 -4 50 28 21 15 -14 34 -21 63 -23 4 -1 6 -7 3 -15 -6 -14 10 -36 26 -36 5 0 4 7 -3 15 -8 10 -9 15 -2 15 6 0 16 -8 21 -17 8 -14 10 -15 10 -3 0 14 -49 50 -109 80 -14 7 -36 23 -50 36 -30 27 -80 48 -80 34z"/> <path d="M577 373 c-8 -12 11 -63 24 -63 4 0 7 9 6 19 0 11 -4 18 -8 15 -4 -2 -9 6 -11 18 -2 15 -6 19 -11 11z"/> <path d="M1816 295 c4 -51 11 -84 20 -91 16 -13 19 -39 4 -29 -5 3 -10 2 -10 -3 0 -6 6 -12 14 -15 22 -9 26 38 4 52 -13 8 -18 24 -19 64 -1 28 -5 63 -9 77 -6 16 -7 -5 -4 -55z"/> <path d="M1950 360 c0 -5 5 -10 11 -10 5 0 7 5 4 10 -3 6 -8 10 -11 10 -2 0 -4 -4 -4 -10z"/> <path d="M190 305 c18 -19 36 -33 38 -30 7 6 -50 64 -62 65 -6 0 5 -16 24 -35z"/> <path d="M544 285 c3 -21 16 -31 16 -12 0 9 -4 18 -9 21 -5 4 -8 -1 -7 -9z"/> <path d="M600 290 c0 -6 6 -23 14 -38 7 -15 16 -44 20 -65 8 -42 33 -47 28 -6 -6 49 -13 70 -22 64 -10 -6 -13 3 -13 38 0 9 -6 17 -13 17 -8 0 -14 -5 -14 -10z"/> <path d="M2130 290 c0 -13 11 -13 30 0 12 8 11 10 -7 10 -13 0 -23 -4 -23 -10z"/> <path d="M1951 274 c0 -11 3 -14 6 -6 3 7 2 16 -1 19 -3 4 -6 -2 -5 -13z"/> <path d="M270 240 c19 -16 40 -29 45 -29 6 0 -6 13 -25 29 -19 16 -39 29 -45 29 -5 0 6 -13 25 -29z"/> <path d="M1679 268 c-6 -20 -5 -38 2 -49 6 -10 9 -4 9 19 0 17 -2 32 -5 32 -3 0 -5 -1 -6 -2z"/> <path d="M1604 251 c-10 -11 -2 -20 12 -14 13 5 15 1 9 -18 -4 -17 -4 -20 3 -10 8 12 11 11 15 -5 2 -10 3 -7 2 9 -1 15 2 27 7 27 4 0 8 3 8 8 0 7 -48 10 -56 3z"/> <path d="M145 240 c3 -5 10 -10 16 -10 5 0 9 5 9 10 0 6 -7 10 -16 10 -8 0 -12 -4 -9 -10z"/> <path d="M1589 218 c-6 -21 -5 -37 2 -32 5 3 9 0 9 -5 0 -6 8 -11 18 -11 15 1 14 3 -5 19 -12 10 -19 21 -16 25 4 3 3 6 0 6 -4 0 -7 -1 -8 -2z"/> <path d="M450 205 c0 -6 50 -55 56 -55 9 0 -30 49 -43 54 -7 3 -13 3 -13 1z"/> <path d="M2148 185 c-21 -27 -22 -35 -8 -35 6 0 10 7 10 15 0 8 4 15 9 15 5 0 11 7 15 15 8 23 -7 17 -26 -10z"/> <path d="M1891 186 c2 -2 18 -6 34 -10 22 -5 26 -4 15 4 -14 9 -59 15 -49 6z"/> <path d="M1863 119 c-2 -17 1 -18 13 -9 17 15 18 30 1 30 -7 0 -13 -9 -14 -21z"/> <path d="M2250 110 c-8 -6 -32 -15 -54 -21 -21 -6 -35 -13 -32 -16 3 -3 -2 -12 -12 -19 -9 -7 -14 -15 -11 -18 3 -3 14 2 25 12 11 11 31 22 46 25 14 4 33 9 41 13 8 3 17 -2 21 -11 7 -19 -9 -55 -25 -55 -6 0 -6 7 1 20 7 14 7 20 0 20 -5 0 -10 -6 -10 -14 0 -8 -8 -22 -17 -32 -16 -16 -16 -16 7 -9 14 4 32 14 42 22 14 13 17 12 23 -6 3 -12 10 -21 15 -21 5 0 -1 27 -13 60 -24 64 -24 65 -47 50z"/> <path d="M1827 83 c-4 -3 -7 -11 -7 -17 0 -6 5 -5 12 2 6 6 9 14 7 17 -3 3 -9 2 -12 -2z"/> <path d="M2070 80 c0 -19 39 -31 62 -19 15 8 18 14 10 17 -7 2 -19 -2 -27 -8 -9 -7 -15 -8 -15 -2 0 5 -7 12 -15 16 -8 3 -15 1 -15 -4z"/> </g> </svg> 